<?xml version="1.0" encoding="utf-8"?>
<!-- Generator: Adobe Illustrator 24.0.2, SVG Export Plug-In . SVG Version: 6.00 Build 0)  -->
<svg version="1.1" id="Layer_1" xmlns="http://www.w3.org/2000/svg" xmlns:xlink="http://www.w3.org/1999/xlink" x="0px" y="0px"
	 viewBox="0 0 44 40" style="enable-background:new 0 0 44 40;" xml:space="preserve">
<style type="text/css">
	.st0{fill:#607D8B;}
	.st1{fill:#FFFFFF;}
	.st2{fill:#825EBB;}
	.st3{fill:#4CAF50;}
	.st4{fill:#2196F3;}
	.st5{fill:#FF9129;}
	.st6{fill:#FFD178;}
	.st7{fill:#FFECA1;}
	.st8{fill:#FFB05F;}
	.st9{fill:#FF904E;}
	.st10{fill:#7CC3AC;}
	.st11{fill:#61AE9F;}
	.st12{fill:#4A7273;}
	.st13{fill:#43545C;}
	.st14{fill:#FE5E47;}
	.st15{fill:#DB3131;}
	.st16{fill:#F53737;}
	.st17{fill:#4BB9EC;}
	.st18{fill:#575F64;}
	.st19{fill:#FFCEBF;}
	.st20{fill:#7C8388;}
	.st21{fill:#FFB99C;}
	.st22{fill:#FF641A;}
	.st23{fill:#F03800;}
	.st24{fill:#2E8099;}
	.st25{fill:#379EC3;}
	.st26{fill:#EEDC9A;}
	.st27{fill:#8ACCE7;}
	.st28{fill:#E88604;}
	.st29{fill:#EEBE33;}
	.st30{fill:#E44042;}
	.st31{fill:#8EC737;}
	.st32{fill:#68B840;}
	.st33{fill:#FFAF5F;}
	.st34{fill:#EF6E50;}
	.st35{fill:#5C546A;}
	.st36{fill:#70A024;}
	.st37{fill:#008DBE;}
	.st38{fill:#FF4F19;}
	.st39{fill:#694B4B;}
	.st40{fill:#E6AF78;}
	.st41{fill:#6AC679;}
	.st42{fill:#D29B6E;}
	.st43{fill:#56A55F;}
	.st44{fill:#E4EAF6;}
	.st45{fill:#F0C087;}
	.st46{fill:#DC9400;}
	.st47{fill:#B77B1C;}
	.st48{fill:#5B5D6E;}
	.st49{fill:#515262;}
	.st50{fill:#3A91FF;}
	.st51{fill:#2A7AD1;}
</style>
<path class="st0" d="M38.38,0H5.65C2.65,0,0.2,2.45,0.2,5.45v29.09C0.2,37.55,2.65,40,5.65,40h32.73c3.01,0,5.45-2.45,5.45-5.45
	V5.45C43.84,2.45,41.39,0,38.38,0z"/>
<path class="st1" d="M38.38,36.36H5.65c-1,0-1.82-0.81-1.82-1.82V9.09H40.2v25.45C40.2,35.55,39.38,36.36,38.38,36.36z"/>
<path class="st2" d="M31.56,21.82H25.2c-0.75,0-1.36-0.61-1.36-1.36v-6.36c0-0.75,0.61-1.36,1.36-1.36h6.36
	c0.75,0,1.36,0.61,1.36,1.36v6.36C32.93,21.21,32.32,21.82,31.56,21.82z"/>
<path class="st3" d="M31.56,34.55H25.2c-0.75,0-1.36-0.61-1.36-1.36v-6.36c0-0.75,0.61-1.36,1.36-1.36h6.36
	c0.75,0,1.36,0.61,1.36,1.36v6.36C32.93,33.93,32.32,34.55,31.56,34.55z"/>
<path class="st4" d="M18.84,21.82h-6.36c-0.75,0-1.36-0.61-1.36-1.36v-6.36c0-0.75,0.61-1.36,1.36-1.36h6.36
	c0.75,0,1.36,0.61,1.36,1.36v6.36C20.2,21.21,19.59,21.82,18.84,21.82z"/>
<path class="st5" d="M18.84,34.55h-6.36c-0.75,0-1.36-0.61-1.36-1.36v-6.36c0-0.75,0.61-1.36,1.36-1.36h6.36
	c0.75,0,1.36,0.61,1.36,1.36v6.36C20.2,33.93,19.59,34.55,18.84,34.55z"/>
</svg>
