<?xml version="1.0" encoding="utf-8"?>
<!-- Generator: Adobe Illustrator 24.0.2, SVG Export Plug-In . SVG Version: 6.00 Build 0)  -->
<svg version="1.1" id="Layer_1" xmlns="http://www.w3.org/2000/svg" xmlns:xlink="http://www.w3.org/1999/xlink" x="0px" y="0px"
	 viewBox="0 0 49.76 50" style="enable-background:new 0 0 49.76 50;" xml:space="preserve">
<style type="text/css">
	.st0{fill:#607D8B;}
	.st1{fill:#FFFFFF;}
	.st2{fill:#825EBB;}
	.st3{fill:#4CAF50;}
	.st4{fill:#2196F3;}
	.st5{fill:#FF9129;}
	.st6{fill:#FFD178;}
	.st7{fill:#FFECA1;}
	.st8{fill:#FFB05F;}
	.st9{fill:#FF904E;}
	.st10{fill:#7CC3AC;}
	.st11{fill:#61AE9F;}
	.st12{fill:#4A7273;}
	.st13{fill:#43545C;}
	.st14{fill:#FE5E47;}
	.st15{fill:#DB3131;}
	.st16{fill:#F53737;}
	.st17{fill:#4BB9EC;}
	.st18{fill:#575F64;}
	.st19{fill:#FFCEBF;}
	.st20{fill:#7C8388;}
	.st21{fill:#FFB99C;}
	.st22{fill:#FF641A;}
	.st23{fill:#F03800;}
	.st24{fill:#2E8099;}
	.st25{fill:#379EC3;}
	.st26{fill:#EEDC9A;}
	.st27{fill:#8ACCE7;}
	.st28{fill:#E88604;}
	.st29{fill:#EEBE33;}
	.st30{fill:#E44042;}
	.st31{fill:#8EC737;}
	.st32{fill:#68B840;}
	.st33{fill:#FFAF5F;}
	.st34{fill:#EF6E50;}
	.st35{fill:#5C546A;}
	.st36{fill:#70A024;}
	.st37{fill:#008DBE;}
	.st38{fill:#FF4F19;}
	.st39{fill:#694B4B;}
	.st40{fill:#E6AF78;}
	.st41{fill:#6AC679;}
	.st42{fill:#D29B6E;}
	.st43{fill:#56A55F;}
	.st44{fill:#E4EAF6;}
	.st45{fill:#F0C087;}
	.st46{fill:#DC9400;}
	.st47{fill:#B77B1C;}
	.st48{fill:#5B5D6E;}
	.st49{fill:#515262;}
	.st50{fill:#3A91FF;}
	.st51{fill:#2A7AD1;}
</style>
<path class="st17" d="M4.47,11.66C2.06,11.66,0,13.62,0,16.04v20.41c0,2.42,2.06,4.37,4.47,4.37h1.46v7.48
	c0,0.59,0.35,1.12,0.9,1.35c0.18,0.08,0.37,0.11,0.56,0.11c0.38,0,0.75-0.15,1.03-0.43l8.42-8.51h16.89c2.42,0,4.37-1.96,4.37-4.37
	V16.04c0-2.42-1.96-4.37-4.37-4.37H4.47z"/>
<path class="st18" d="M19.15,32.07H10.3c-0.81,0-1.46-0.65-1.46-1.46s0.65-1.46,1.46-1.46h8.84c0.81,0,1.46,0.65,1.46,1.46
	S19.95,32.07,19.15,32.07z"/>
<path class="st19" d="M28.54,27.32c-0.06,0.06-0.12,0.12-0.19,0.14l-8.6,4.47c-0.6,0.27-1.22,0.1-1.63-0.31
	c-0.41-0.41-0.58-1.03-0.31-1.63l4.47-8.6c0.02-0.06,0.08-0.12,0.14-0.19l4.95,1.15l0.43,0.1L28.54,27.32z"/>
<path class="st20" d="M49.33,6.62l-3.09,3.09l-5.09-1.09L41,8.6l-0.95-5.07l3.09-3.09c0.58-0.58,1.48-0.58,2.06,0l4.12,4.12
	C49.91,5.13,49.91,6.04,49.33,6.62z"/>
<path class="st21" d="M27.82,22.48l0.72,4.85c-0.06,0.06-0.12,0.12-0.19,0.14l-8.6,4.47c-0.6,0.27-1.22,0.1-1.63-0.31l9.26-9.26
	L27.82,22.48z"/>
<path class="st18" d="M49.33,6.62l-3.09,3.09l-5.09-1.09l6.12-6.12l2.06,2.06C49.91,5.13,49.91,6.04,49.33,6.62z"/>
<path class="st22" d="M46.24,9.71L28.77,27.18c-0.06,0.06-0.14,0.1-0.23,0.14l-6.1-6.1c0.04-0.08,0.08-0.16,0.14-0.23L40.05,3.53
	L46.24,9.71z"/>
<path class="st23" d="M46.24,9.71L28.77,27.18c-0.06,0.06-0.14,0.1-0.23,0.14l-3.05-3.05L43.14,6.62L46.24,9.71z"/>
</svg>
