<?xml version="1.0" encoding="utf-8"?>
<!-- Generator: Adobe Illustrator 24.0.2, SVG Export Plug-In . SVG Version: 6.00 Build 0)  -->
<svg version="1.1" id="Layer_1" xmlns="http://www.w3.org/2000/svg" xmlns:xlink="http://www.w3.org/1999/xlink" x="0px" y="0px"
	 viewBox="0 0 52 40" style="enable-background:new 0 0 52 40;" xml:space="preserve">
<style type="text/css">
	.st0{fill:#607D8B;}
	.st1{fill:#FFFFFF;}
	.st2{fill:#825EBB;}
	.st3{fill:#4CAF50;}
	.st4{fill:#2196F3;}
	.st5{fill:#FF9129;}
	.st6{fill:#FFD178;}
	.st7{fill:#FFECA1;}
	.st8{fill:#FFB05F;}
	.st9{fill:#FF904E;}
	.st10{fill:#7CC3AC;}
	.st11{fill:#61AE9F;}
	.st12{fill:#4A7273;}
	.st13{fill:#43545C;}
	.st14{fill:#FE5E47;}
	.st15{fill:#DB3131;}
	.st16{fill:#F53737;}
	.st17{fill:#4BB9EC;}
	.st18{fill:#575F64;}
	.st19{fill:#FFCEBF;}
	.st20{fill:#7C8388;}
	.st21{fill:#FFB99C;}
	.st22{fill:#FF641A;}
	.st23{fill:#F03800;}
	.st24{fill:#2E8099;}
	.st25{fill:#379EC3;}
	.st26{fill:#EEDC9A;}
	.st27{fill:#8ACCE7;}
	.st28{fill:#E88604;}
	.st29{fill:#EEBE33;}
	.st30{fill:#E44042;}
	.st31{fill:#8EC737;}
	.st32{fill:#68B840;}
	.st33{fill:#FFAF5F;}
	.st34{fill:#EF6E50;}
	.st35{fill:#5C546A;}
	.st36{fill:#70A024;}
	.st37{fill:#008DBE;}
	.st38{fill:#FF4F19;}
	.st39{fill:#694B4B;}
	.st40{fill:#E6AF78;}
	.st41{fill:#6AC679;}
	.st42{fill:#D29B6E;}
	.st43{fill:#56A55F;}
	.st44{fill:#E4EAF6;}
	.st45{fill:#F0C087;}
	.st46{fill:#DC9400;}
	.st47{fill:#B77B1C;}
	.st48{fill:#5B5D6E;}
	.st49{fill:#515262;}
	.st50{fill:#3A91FF;}
	.st51{fill:#2A7AD1;}
</style>
<g>
	<path class="st39" d="M9.29,10.44c-8.18,0-7.27,9.95-7.24,17.16c0,0.27,0.14,0.52,0.38,0.66c0.91,0.55,3.4,1.82,6.86,1.82
		s5.95-1.28,6.86-1.82c0.23-0.14,0.38-0.39,0.38-0.66C16.56,20.39,17.47,10.44,9.29,10.44z"/>
	<path d="M8.76,10.46C1.15,10.89,2.02,20.55,2.05,27.6c0,0.27,0.14,0.52,0.38,0.66c0.91,0.55,3.4,1.82,6.86,1.82l2.07-14.47"/>
	<path d="M9.29,10.44c-4.65,0-4.97,5.62-4.97,5.62c2.68-0.45,4.33,0.68,7.04-0.45L9.29,30.08c3.46,0,5.95-1.28,6.86-1.82
		c0.23-0.14,0.38-0.39,0.38-0.66C16.56,20.39,17.47,10.44,9.29,10.44z"/>
	<path d="M16.53,27.6c0.03-6.2,0.7-14.41-4.3-16.6c-0.09,0.45-0.25,1.72,0.17,2.54c1.03,2.07,2.07,2.07,3.1,3.62
		c1.03,5.69-1.98,11.72-2.97,12.54l0,0c1.77-0.42,3.04-1.09,3.63-1.44C16.38,28.12,16.52,27.87,16.53,27.6z"/>
	<path class="st40" d="M17.12,29.17l-4.61-1.92c-0.39-0.16-0.64-0.54-0.64-0.95v-1.25H6.7v1.25c0,0.42-0.25,0.79-0.64,0.95
		l-4.61,1.92C0.88,29.41,0.5,29.97,0.5,30.6v2.07c0,0.57,0.46,1.03,1.03,1.03h15.51c0.57,0,1.03-0.46,1.03-1.03V30.6
		C18.08,29.97,17.7,29.41,17.12,29.17z"/>
	<path class="st41" d="M17.12,29.17l-4.46-1.86l-3.37,1.46l-3.37-1.46l-4.46,1.86C0.88,29.41,0.5,29.97,0.5,30.6v2.07
		c0,0.57,0.46,1.03,1.03,1.03h15.51c0.57,0,1.03-0.46,1.03-1.03V30.6C18.08,29.97,17.7,29.41,17.12,29.17z"/>
	<path class="st42" d="M11.87,25.04H6.7v1.25c0,0.42-0.25,0.79-0.64,0.95l-0.72,0.3C10.86,28.95,11.87,25.04,11.87,25.04z"/>
	<g>
		<path class="st43" d="M3.02,31.17l-2.07-1.65C0.67,29.8,0.5,30.19,0.5,30.6v2.07c0,0.57,0.46,1.03,1.03,1.03H3.6v-1.32
			C3.6,31.91,3.39,31.46,3.02,31.17z"/>
		<path class="st44" d="M18.08,32.67V30.6c0-0.41-0.16-0.79-0.44-1.08l-2.08,1.64c-0.37,0.29-0.58,0.74-0.58,1.21v1.32h2.07
			C17.61,33.7,18.08,33.24,18.08,32.67z"/>
		<path class="st43" d="M9.37,32.67H9.21c-0.24,0-0.44-0.2-0.44-0.44v-3.46h1.03v3.46C9.81,32.47,9.61,32.67,9.37,32.67z"/>
		<path class="st43" d="M9.29,28.77l-2.96-2.22c-0.19-0.14-0.46-0.1-0.59,0.1l-0.58,0.88l1.81,2.54c0.14,0.19,0.41,0.23,0.59,0.08
			L9.29,28.77z"/>
		<path class="st43" d="M9.29,28.77l2.96-2.22c0.19-0.14,0.46-0.1,0.59,0.1l0.58,0.88l-1.81,2.54c-0.14,0.19-0.41,0.23-0.59,0.08
			L9.29,28.77z"/>
	</g>
	<path class="st45" d="M11.87,15.09c-2.58,2.58-7.66,0.52-7.66,4.65l0.32,3.05C4.6,23.47,5,24.08,5.59,24.41l2.94,1.63
		c0.47,0.26,1.04,0.26,1.51,0l2.94-1.63c0.6-0.33,0.99-0.94,1.05-1.62l0.37-3.62c0.03-0.26,0.03-0.52,0.02-0.77
		C14.24,17.08,12.39,16.13,11.87,15.09z"/>
	<path class="st40" d="M4.22,19.74l0.32,3.05C4.6,23.47,5,24.08,5.59,24.41l2.94,1.63c0.32,0.18,0.7,0.23,1.05,0.16l0,0
		c0,0-1.48-0.45-2.37-2.84c-0.27-0.73-0.65-4.61-0.32-5.08c0.64-0.94,4.2-1.03,5.25-2.77c-0.05-0.06-0.1-0.13-0.14-0.19
		C12,15.31,12,15.3,12,15.3c-0.05-0.07-0.09-0.14-0.12-0.21C9.29,17.68,4.22,15.61,4.22,19.74z"/>
	<path class="st44" d="M13.06,32.67h-1.34c-0.49,0-0.88,0.39-0.88,0.88v0.16h3.1v-0.16C13.94,33.06,13.55,32.67,13.06,32.67z"/>
	<polygon class="st40" points="44.6,26.76 44.6,23.93 37.3,23.93 37.3,26.76 40.95,30.01 	"/>
	<path class="st46" d="M50.25,28.09l-5.02-1.18c-0.08-0.02-0.15-0.05-0.21-0.08l-4.06,2.37l-3.91-2.49c-0.1,0.1-0.23,0.17-0.37,0.2
		l-5.02,1.18c-0.73,0.17-1.25,0.83-1.25,1.58v3.18c0,0.45,0.36,0.81,0.81,0.81h19.47c0.45,0,0.81-0.36,0.81-0.81v-3.18
		C51.5,28.92,50.98,28.27,50.25,28.09z"/>
	<path class="st42" d="M37.3,23.93v3c4.6,1.66,7.3-2.49,7.3-2.49v-0.51H37.3L37.3,23.93z"/>
	<path class="st45" d="M35.68,14.6l0.35,7.78c0.03,0.73,0.39,1.4,0.97,1.84l1.68,1.26c0.42,0.32,0.93,0.49,1.46,0.49h1.62
		c0.53,0,1.04-0.17,1.46-0.49l1.68-1.26c0.58-0.44,0.94-1.11,0.97-1.84l0.35-7.78L35.68,14.6L35.68,14.6z"/>
	<path class="st40" d="M39.74,16.22c1.62,0,4.06-0.41,4.63-1.62h-8.69l0.35,7.78c0.03,0.73,0.39,1.4,0.97,1.84l1.68,1.26
		c0.42,0.32,0.93,0.49,1.46,0.49h0.81c-0.81,0-2.43-1.62-2.43-3.65c0-0.99,0-3.65,0-4.87C38.52,17.03,38.93,16.22,39.74,16.22z"/>
	<path class="st47" d="M48.52,31.03l2.63-2.36c0.22,0.28,0.35,0.63,0.35,1.01v3.18c0,0.45-0.36,0.81-0.81,0.81h-2.84v-1.12
		C47.85,31.96,48.09,31.41,48.52,31.03z"/>
	<polygon class="st48" points="41.97,33.66 39.94,33.66 40.19,30.01 41.71,30.01 	"/>
	<path class="st49" d="M41.97,29.2h-2.03v0.23c0,0.54,0.44,0.98,0.98,0.98h0.06c0.54,0,0.98-0.44,0.98-0.98L41.97,29.2L41.97,29.2z"
		/>
	<g>
		<path class="st47" d="M37.25,25.86l3.71,3.34c0,0-1.04,0.52-2.32,1.58c-0.26,0.22-0.66,0.13-0.81-0.18l-1.74-3.83l0.55-0.83
			C36.77,25.73,37.06,25.7,37.25,25.86z"/>
		<path class="st47" d="M44.66,25.86l-3.71,3.34c0,0,1.04,0.52,2.32,1.58c0.26,0.22,0.66,0.13,0.81-0.18l1.74-3.83l-0.55-0.83
			C45.13,25.73,44.84,25.7,44.66,25.86z"/>
	</g>
	<path d="M43.41,11.91l0.38,2.69c1.74,0.35,1.99,3.07,2.02,3.85c0.01,0.14,0.05,0.28,0.13,0.4l0.66,1.03c0,0-0.23-1.7,0.81-2.84
		C47.42,17.03,47.77,10.29,43.41,11.91z"/>
	<path class="st45" d="M47.01,19.7l-0.46,1.83c-0.05,0.22-0.25,0.37-0.47,0.37l0,0c-0.25,0-0.45-0.18-0.48-0.43l-0.23-1.87
		c-0.06-0.5,0.33-0.94,0.83-0.94h0C46.74,18.65,47.14,19.17,47.01,19.7z"/>
	<path d="M36.07,11.18l0.6,0.41c-2.71,2-2.21,5.44-2.21,5.44c0.81,0.81,0.81,2.84,0.81,2.84l0.81-0.81c0,0-0.31-2.34,1.22-3.24
		c1.42-0.84,2.66-0.41,3.93-0.41c3.4,0,4.35-1.28,4.18-2.84c-0.09-0.81-1.32-2.49-4.46-2.43C39.68,10.16,37.3,10.54,36.07,11.18z"/>
	<path d="M35.83,15.05c0,0-0.43-1.7,0.84-3.46c-2.71,2-2.21,5.44-2.21,5.44c0.81,0.81,0.81,2.84,0.81,2.84l0.81-0.81
		c0,0-0.31-2.34,1.22-3.24c1.42-0.84,2.66-0.41,3.93-0.41c0.55,0,1.03-0.04,1.46-0.1C40.08,15.4,38.54,13.42,35.83,15.05z"/>
	<path class="st40" d="M34.9,19.7l0.46,1.83c0.05,0.22,0.25,0.37,0.47,0.37l0,0c0.25,0,0.45-0.18,0.48-0.43l0.23-1.87
		c0.06-0.5-0.33-0.94-0.83-0.94h0C35.16,18.65,34.76,19.17,34.9,19.7z"/>
	<path class="st47" d="M45.82,32.85h-2.03c-0.45,0-0.81,0.36-0.81,0.81l0,0h3.65l0,0C46.63,33.21,46.27,32.85,45.82,32.85z"/>
	<path class="st39" d="M26.02,0.27c-13.91,0-12.37,16.91-12.3,29.17c0,0.46,0.24,0.88,0.64,1.12c1.54,0.93,5.77,3.1,11.66,3.1
		s10.12-2.17,11.66-3.1c0.4-0.24,0.64-0.66,0.64-1.12C38.38,17.18,39.92,0.27,26.02,0.27z"/>
	<path d="M25.12,0.3C12.18,1.03,13.65,17.45,13.71,29.44c0,0.46,0.24,0.88,0.64,1.12c1.54,0.93,5.77,3.1,11.66,3.1l3.51-24.6"/>
	<path d="M26.02,0.27c-7.91,0-8.46,9.56-8.46,9.56c4.56-0.77,7.36,1.15,11.97-0.77l-3.51,24.6c5.89,0,10.12-2.17,11.66-3.1
		c0.4-0.24,0.64-0.66,0.64-1.12C38.38,17.18,39.92,0.27,26.02,0.27z"/>
	<path d="M38.32,29.44c0.05-10.53,1.19-24.49-7.31-28.22c-0.15,0.77-0.42,2.92,0.28,4.32c1.76,3.51,3.51,3.51,5.27,6.15
		c1.76,9.67-3.36,19.92-5.06,21.32l0,0c3.01-0.72,5.17-1.85,6.17-2.46C38.07,30.32,38.32,29.9,38.32,29.44z"/>
	<path class="st40" d="M39.33,32.1l-7.84-3.27c-0.65-0.27-1.08-0.91-1.08-1.62v-2.12h-8.79v2.12c0,0.71-0.43,1.35-1.08,1.62
		L12.7,32.1c-0.98,0.41-1.62,1.37-1.62,2.43v3.51c0,0.97,0.79,1.76,1.76,1.76H39.2c0.97,0,1.76-0.79,1.76-1.76v-3.51
		C40.95,33.47,40.31,32.51,39.33,32.1z"/>
	<path class="st50" d="M39.33,32.1l-7.58-3.16l-5.73,2.47l-5.73-2.47L12.7,32.1c-0.98,0.41-1.62,1.37-1.62,2.43v3.51
		c0,0.97,0.79,1.76,1.76,1.76H39.2c0.97,0,1.76-0.79,1.76-1.76v-3.51C40.95,33.47,40.31,32.51,39.33,32.1z"/>
	<path class="st42" d="M30.41,25.09h-8.79v2.12c0,0.71-0.43,1.35-1.08,1.62l-1.22,0.51C28.69,31.74,30.41,25.09,30.41,25.09z"/>
	<g>
		<path class="st51" d="M15.36,35.5l-3.53-2.81c-0.47,0.48-0.76,1.14-0.76,1.84v3.51c0,0.97,0.79,1.76,1.76,1.76h3.51v-2.25
			C16.35,36.76,15.99,36,15.36,35.5z"/>
		<path class="st51" d="M40.95,38.05v-3.51c0-0.7-0.28-1.35-0.74-1.83l-3.54,2.79c-0.63,0.5-0.99,1.26-0.99,2.06v2.25h3.51
			C40.17,39.81,40.95,39.02,40.95,38.05z"/>
		<path class="st51" d="M26.02,38.05L26.02,38.05c-0.49,0-0.88-0.39-0.88-0.88v-5.75h1.76v5.75C26.89,37.66,26.5,38.05,26.02,38.05z
			"/>
		<path class="st51" d="M26.02,31.42l-5.03-3.77c-0.32-0.24-0.78-0.16-1.01,0.17l-0.99,1.49l3.08,4.32c0.23,0.33,0.7,0.39,1.01,0.14
			L26.02,31.42z"/>
		<path class="st51" d="M26.02,31.42l5.03-3.77c0.32-0.24,0.78-0.16,1.01,0.17l0.99,1.49l-3.08,4.32c-0.23,0.33-0.7,0.39-1.01,0.14
			L26.02,31.42z"/>
	</g>
	<path class="st45" d="M30.41,8.18c-4.39,4.39-13.02,0.88-13.02,7.91l0.55,5.18c0.11,1.16,0.78,2.19,1.79,2.75l5,2.78
		c0.8,0.44,1.76,0.44,2.56,0l5-2.78c1.02-0.56,1.69-1.6,1.79-2.75l0.63-6.15c0.04-0.44,0.05-0.88,0.04-1.32
		C34.43,11.56,31.29,9.93,30.41,8.18z"/>
	<path class="st40" d="M17.39,16.09l0.55,5.18c0.11,1.16,0.78,2.19,1.79,2.75l5,2.78c0.55,0.31,1.19,0.39,1.79,0.27l0,0
		c0,0-2.52-0.76-4.02-4.83c-0.46-1.24-1.1-7.84-0.55-8.64c1.09-1.59,7.14-1.76,8.93-4.71c-0.09-0.11-0.17-0.22-0.24-0.33
		c-0.01-0.01-0.01-0.02-0.02-0.03c-0.08-0.12-0.15-0.23-0.21-0.35C26.02,12.57,17.39,9.06,17.39,16.09z"/>
	<path class="st51" d="M33.04,38.05h-3.51c-0.49,0-0.88,0.39-0.88,0.88v0.88h5.27v-0.88C33.92,38.45,33.53,38.05,33.04,38.05z"/>
</g>
</svg>
