<?xml version="1.0" encoding="utf-8"?>
<!-- Generator: Adobe Illustrator 24.0.2, SVG Export Plug-In . SVG Version: 6.00 Build 0)  -->
<svg version="1.1" id="Layer_1" xmlns="http://www.w3.org/2000/svg" xmlns:xlink="http://www.w3.org/1999/xlink" x="0px" y="0px"
	 viewBox="0 0 42 40" style="enable-background:new 0 0 42 40;" xml:space="preserve">
<style type="text/css">
	.st0{fill:#607D8B;}
	.st1{fill:#FFFFFF;}
	.st2{fill:#825EBB;}
	.st3{fill:#4CAF50;}
	.st4{fill:#2196F3;}
	.st5{fill:#FF9129;}
	.st6{fill:#FFD178;}
	.st7{fill:#FFECA1;}
	.st8{fill:#FFB05F;}
	.st9{fill:#FF904E;}
	.st10{fill:#7CC3AC;}
	.st11{fill:#61AE9F;}
	.st12{fill:#4A7273;}
	.st13{fill:#43545C;}
	.st14{fill:#FE5E47;}
	.st15{fill:#DB3131;}
	.st16{fill:#F53737;}
	.st17{fill:#4BB9EC;}
	.st18{fill:#575F64;}
	.st19{fill:#FFCEBF;}
	.st20{fill:#7C8388;}
	.st21{fill:#FFB99C;}
	.st22{fill:#FF641A;}
	.st23{fill:#F03800;}
	.st24{fill:#2E8099;}
	.st25{fill:#379EC3;}
	.st26{fill:#EEDC9A;}
	.st27{fill:#8ACCE7;}
	.st28{fill:#E88604;}
	.st29{fill:#EEBE33;}
	.st30{fill:#E44042;}
	.st31{fill:#8EC737;}
	.st32{fill:#68B840;}
	.st33{fill:#FFAF5F;}
	.st34{fill:#EF6E50;}
	.st35{fill:#5C546A;}
	.st36{fill:#70A024;}
	.st37{fill:#008DBE;}
	.st38{fill:#FF4F19;}
	.st39{fill:#694B4B;}
	.st40{fill:#E6AF78;}
	.st41{fill:#6AC679;}
	.st42{fill:#D29B6E;}
	.st43{fill:#56A55F;}
	.st44{fill:#E4EAF6;}
	.st45{fill:#F0C087;}
	.st46{fill:#DC9400;}
	.st47{fill:#B77B1C;}
	.st48{fill:#5B5D6E;}
	.st49{fill:#515262;}
	.st50{fill:#3A91FF;}
	.st51{fill:#2A7AD1;}
</style>
<g>
	<g>
		<path class="st33" d="M0.41,10.12v26.5c0,1.78,1.45,3.23,3.23,3.23h34.9c1.78,0,3.23-1.45,3.23-3.23v-26.5H0.41z"/>
	</g>
	<g>
		<path class="st34" d="M38.54,1.08H3.65c-1.78,0-3.23,1.45-3.23,3.23v5.82h41.36V4.31C41.77,2.52,40.32,1.08,38.54,1.08z
			 M5.58,7.54c-1.07,0-1.94-0.87-1.94-1.94s0.87-1.94,1.94-1.94S7.52,4.53,7.52,5.6S6.65,7.54,5.58,7.54z M36.6,7.54
			c-1.07,0-1.94-0.87-1.94-1.94s0.87-1.94,1.94-1.94s1.94,0.87,1.94,1.94S37.67,7.54,36.6,7.54z"/>
	</g>
	<g>
		<g>
			<path class="st1" d="M21.09,15.94c-1.43,0-2.58,1.16-2.58,2.58s1.16,2.58,2.58,2.58c1.43,0,2.58-1.16,2.58-2.58
				S22.52,15.94,21.09,15.94z"/>
		</g>
		<g>
			<path class="st1" d="M14.63,15.94c-1.43,0-2.58,1.16-2.58,2.58s1.16,2.58,2.58,2.58c1.43,0,2.58-1.16,2.58-2.58
				S16.06,15.94,14.63,15.94z"/>
		</g>
		<g>
			<path class="st1" d="M8.17,15.94c-1.43,0-2.58,1.16-2.58,2.58s1.16,2.58,2.58,2.58s2.58-1.16,2.58-2.58S9.59,15.94,8.17,15.94z"
				/>
		</g>
		<g>
			<path class="st1" d="M27.56,15.94c-1.43,0-2.58,1.16-2.58,2.58s1.16,2.58,2.58,2.58c1.43,0,2.58-1.16,2.58-2.58
				S28.98,15.94,27.56,15.94z"/>
		</g>
		<g>
			<path class="st1" d="M34.02,21.11c1.43,0,2.58-1.16,2.58-2.58s-1.16-2.58-2.58-2.58c-1.43,0-2.58,1.16-2.58,2.58
				S32.59,21.11,34.02,21.11z"/>
		</g>
		<g>
			<path class="st1" d="M21.09,22.4c-1.43,0-2.58,1.16-2.58,2.58c0,1.43,1.16,2.58,2.58,2.58c1.43,0,2.58-1.16,2.58-2.58
				C23.68,23.56,22.52,22.4,21.09,22.4z"/>
		</g>
		<g>
			<path class="st1" d="M14.63,22.4c-1.43,0-2.58,1.16-2.58,2.58c0,1.43,1.16,2.58,2.58,2.58c1.43,0,2.58-1.16,2.58-2.58
				C17.22,23.56,16.06,22.4,14.63,22.4z"/>
		</g>
		<g>
			<path class="st1" d="M8.17,22.4c-1.43,0-2.58,1.16-2.58,2.58c0,1.43,1.16,2.58,2.58,2.58s2.58-1.16,2.58-2.58
				C10.75,23.56,9.59,22.4,8.17,22.4z"/>
		</g>
		<g>
			<path class="st1" d="M27.56,22.4c-1.43,0-2.58,1.16-2.58,2.58c0,1.43,1.16,2.58,2.58,2.58c1.43,0,2.58-1.16,2.58-2.58
				C30.14,23.56,28.98,22.4,27.56,22.4z"/>
		</g>
		<g>
			<path class="st1" d="M34.02,22.4c-1.43,0-2.58,1.16-2.58,2.58c0,1.43,1.16,2.58,2.58,2.58c1.43,0,2.58-1.16,2.58-2.58
				C36.6,23.56,35.44,22.4,34.02,22.4z"/>
		</g>
		<g>
			<path class="st1" d="M21.09,28.86c-1.43,0-2.58,1.16-2.58,2.58c0,1.43,1.16,2.58,2.58,2.58c1.43,0,2.58-1.16,2.58-2.58
				C23.68,30.02,22.52,28.86,21.09,28.86z"/>
		</g>
		<g>
			<path class="st1" d="M14.63,28.86c-1.43,0-2.58,1.16-2.58,2.58c0,1.43,1.16,2.58,2.58,2.58c1.43,0,2.58-1.16,2.58-2.58
				C17.22,30.02,16.06,28.86,14.63,28.86z"/>
		</g>
		<g>
			<path class="st1" d="M8.17,28.86c-1.43,0-2.58,1.16-2.58,2.58c0,1.43,1.16,2.58,2.58,2.58s2.58-1.16,2.58-2.58
				C10.75,30.02,9.59,28.86,8.17,28.86z"/>
		</g>
		<g>
			<path class="st1" d="M27.56,28.86c-1.43,0-2.58,1.16-2.58,2.58c0,1.43,1.16,2.58,2.58,2.58c1.43,0,2.58-1.16,2.58-2.58
				C30.14,30.02,28.98,28.86,27.56,28.86z"/>
		</g>
		<g>
			<path class="st1" d="M34.02,28.86c-1.43,0-2.58,1.16-2.58,2.58c0,1.43,1.16,2.58,2.58,2.58c1.43,0,2.58-1.16,2.58-2.58
				C36.6,30.02,35.44,28.86,34.02,28.86z"/>
		</g>
	</g>
	<g>
		<g>
			<path class="st35" d="M5.58,6.57c-0.54,0-0.97-0.43-0.97-0.97V1.08c0-0.54,0.43-0.97,0.97-0.97s0.97,0.43,0.97,0.97V5.6
				C6.55,6.13,6.12,6.57,5.58,6.57z"/>
		</g>
	</g>
	<g>
		<g>
			<path class="st35" d="M36.6,6.57c-0.54,0-0.97-0.43-0.97-0.97V1.08c0-0.54,0.43-0.97,0.97-0.97s0.97,0.43,0.97,0.97V5.6
				C37.57,6.13,37.14,6.57,36.6,6.57z"/>
		</g>
	</g>
	<g>
		<circle class="st36" cx="8.17" cy="18.52" r="2.58"/>
	</g>
	<g>
		<circle class="st37" cx="21.09" cy="31.45" r="2.58"/>
	</g>
	<g>
		<circle class="st38" cx="27.56" cy="24.99" r="2.58"/>
	</g>
</g>
</svg>
