<?xml version="1.0" encoding="utf-8"?>
<!-- Generator: Adobe Illustrator 24.0.2, SVG Export Plug-In . SVG Version: 6.00 Build 0)  -->
<svg version="1.1" id="Layer_1" xmlns="http://www.w3.org/2000/svg" xmlns:xlink="http://www.w3.org/1999/xlink" x="0px" y="0px"
	 viewBox="0 0 50.18 50" style="enable-background:new 0 0 50.18 50;" xml:space="preserve">
<style type="text/css">
	.st0{fill:#607D8B;}
	.st1{fill:#FFFFFF;}
	.st2{fill:#825EBB;}
	.st3{fill:#4CAF50;}
	.st4{fill:#2196F3;}
	.st5{fill:#FF9129;}
	.st6{fill:#FFD178;}
	.st7{fill:#FFECA1;}
	.st8{fill:#FFB05F;}
	.st9{fill:#FF904E;}
	.st10{fill:#7CC3AC;}
	.st11{fill:#61AE9F;}
	.st12{fill:#4A7273;}
	.st13{fill:#43545C;}
	.st14{fill:#FE5E47;}
	.st15{fill:#DB3131;}
	.st16{fill:#F53737;}
	.st17{fill:#4BB9EC;}
	.st18{fill:#575F64;}
	.st19{fill:#FFCEBF;}
	.st20{fill:#7C8388;}
	.st21{fill:#FFB99C;}
	.st22{fill:#FF641A;}
	.st23{fill:#F03800;}
	.st24{fill:#2E8099;}
	.st25{fill:#379EC3;}
	.st26{fill:#EEDC9A;}
	.st27{fill:#8ACCE7;}
	.st28{fill:#E88604;}
	.st29{fill:#EEBE33;}
	.st30{fill:#E44042;}
	.st31{fill:#8EC737;}
	.st32{fill:#68B840;}
	.st33{fill:#FFAF5F;}
	.st34{fill:#EF6E50;}
	.st35{fill:#5C546A;}
	.st36{fill:#70A024;}
	.st37{fill:#008DBE;}
	.st38{fill:#FF4F19;}
	.st39{fill:#694B4B;}
	.st40{fill:#E6AF78;}
	.st41{fill:#6AC679;}
	.st42{fill:#D29B6E;}
	.st43{fill:#56A55F;}
	.st44{fill:#E4EAF6;}
	.st45{fill:#F0C087;}
	.st46{fill:#DC9400;}
	.st47{fill:#B77B1C;}
	.st48{fill:#5B5D6E;}
	.st49{fill:#515262;}
	.st50{fill:#3A91FF;}
	.st51{fill:#2A7AD1;}
</style>
<g id="Flat_1_">
	<path class="st24" d="M8.84,0h37.9c1.9,0,3.45,1.54,3.45,3.45v26.7c0,1.9-1.54,3.45-3.45,3.45H8.84c-1.9,0-3.45-1.54-3.45-3.45
		V3.45C5.39,1.54,6.93,0,8.84,0z"/>
	<path class="st25" d="M5.39,28.42h44.79l0,0v1.72c0,1.9-1.54,3.45-3.45,3.45H8.84c-1.9,0-3.45-1.54-3.45-3.45V28.42L5.39,28.42z"/>
	<path class="st26" d="M9.7,3.45h36.17c0.48,0,0.86,0.39,0.86,0.86v24.12l0,0H8.84l0,0V4.31C8.84,3.83,9.22,3.45,9.7,3.45z"/>
	<circle class="st27" cx="27.78" cy="31.01" r="0.86"/>
	<path class="st27" d="M24.34,33.59v3.45c0,1.9-1.54,3.45-3.45,3.45h13.78c-1.9,0-3.45-1.54-3.45-3.45v-3.45H24.34z"/>
	<path class="st28" d="M12.28,18.09h5.17v6.89h-5.17V18.09z"/>
	<path class="st29" d="M20.89,16.36h5.17v8.61h-5.17V16.36z"/>
	<path class="st30" d="M29.51,19.81h5.17v5.17h-5.17V19.81z"/>
	<path class="st31" d="M38.12,13.78h5.17v11.2h-5.17V13.78z"/>
	<path class="st31" d="M41.31,7.5l-3.19,3.19l-5.42,5.42c-0.34,0.34-0.88,0.34-1.22,0l-8-8l-8,8l-1.22-1.22l8.61-8.61
		c0.34-0.34,0.88-0.34,1.22,0l8,8l4.81-4.81l3.19-3.19L41.31,7.5z"/>
	<path class="st32" d="M38.12,10.69V9.47H36.9l3.19-3.19l1.22,1.22L38.12,10.69z"/>
	<path class="st31" d="M41.56,11.2h-1.72V7.75H36.4V6.03h4.31c0.48,0,0.86,0.39,0.86,0.86V11.2z"/>
	<path class="st31" d="M1.95,22.39H14c0.95,0,1.72,0.77,1.72,1.72v24.12c0,0.95-0.77,1.72-1.72,1.72H1.95
		c-0.95,0-1.72-0.77-1.72-1.72V24.12C0.22,23.16,0.99,22.39,1.95,22.39z"/>
	<g>
		<circle class="st32" cx="7.97" cy="47.37" r="0.86"/>
		<path class="st32" d="M6.25,24.12H9.7v1.72H6.25V24.12z"/>
		<circle class="st32" cx="11.42" cy="24.98" r="0.86"/>
	</g>
	<path class="st30" d="M13.14,36.17c0,1.37-0.54,2.69-1.51,3.65l-3.65-3.65l3.65-3.65C12.6,33.49,13.14,34.8,13.14,36.17z"/>
	<path class="st25" d="M11.63,32.52l-7.31,7.31c-2.02-2.02-2.02-5.29,0-7.31S9.61,30.5,11.63,32.52z"/>
	<path class="st26" d="M11.63,39.83c-2.02,2.02-5.29,2.02-7.31,0c0,0,0,0,0,0l3.65-3.65L11.63,39.83z"/>
</g>
</svg>
