<?xml version="1.0" encoding="utf-8"?>
<!-- Generator: Adobe Illustrator 24.0.2, SVG Export Plug-In . SVG Version: 6.00 Build 0)  -->
<svg version="1.1" id="Layer_1" xmlns="http://www.w3.org/2000/svg" xmlns:xlink="http://www.w3.org/1999/xlink" x="0px" y="0px"
	 viewBox="0 0 50.49 50" style="enable-background:new 0 0 50.49 50;" xml:space="preserve">
<style type="text/css">
	.st0{fill:#607D8B;}
	.st1{fill:#FFFFFF;}
	.st2{fill:#825EBB;}
	.st3{fill:#4CAF50;}
	.st4{fill:#2196F3;}
	.st5{fill:#FF9129;}
	.st6{fill:#FFD178;}
	.st7{fill:#FFECA1;}
	.st8{fill:#FFB05F;}
	.st9{fill:#FF904E;}
	.st10{fill:#7CC3AC;}
	.st11{fill:#61AE9F;}
	.st12{fill:#4A7273;}
	.st13{fill:#43545C;}
	.st14{fill:#FE5E47;}
	.st15{fill:#DB3131;}
	.st16{fill:#F53737;}
	.st17{fill:#4BB9EC;}
	.st18{fill:#575F64;}
	.st19{fill:#FFCEBF;}
	.st20{fill:#7C8388;}
	.st21{fill:#FFB99C;}
	.st22{fill:#FF641A;}
	.st23{fill:#F03800;}
	.st24{fill:#2E8099;}
	.st25{fill:#379EC3;}
	.st26{fill:#EEDC9A;}
	.st27{fill:#8ACCE7;}
	.st28{fill:#E88604;}
	.st29{fill:#EEBE33;}
	.st30{fill:#E44042;}
	.st31{fill:#8EC737;}
	.st32{fill:#68B840;}
	.st33{fill:#FFAF5F;}
	.st34{fill:#EF6E50;}
	.st35{fill:#5C546A;}
	.st36{fill:#70A024;}
	.st37{fill:#008DBE;}
	.st38{fill:#FF4F19;}
	.st39{fill:#694B4B;}
	.st40{fill:#E6AF78;}
	.st41{fill:#6AC679;}
	.st42{fill:#D29B6E;}
	.st43{fill:#56A55F;}
	.st44{fill:#E4EAF6;}
	.st45{fill:#F0C087;}
	.st46{fill:#DC9400;}
	.st47{fill:#B77B1C;}
	.st48{fill:#5B5D6E;}
	.st49{fill:#515262;}
	.st50{fill:#3A91FF;}
	.st51{fill:#2A7AD1;}
</style>
<g>
	<path class="st6" d="M33.81,33.43c-4.78,4.8-12.52,4.8-17.3,0c-4.78-4.8-4.78-12.57,0-17.37s12.52-4.8,17.3,0
		S38.59,28.63,33.81,33.43z"/>
	<path class="st7" d="M31.06,30.66c-3.26,3.27-8.54,3.27-11.79,0c-3.26-3.27-3.26-8.57,0-11.84s8.54-3.27,11.79,0
		S34.32,27.39,31.06,30.66z"/>
	<g>
		<path class="st8" d="M30.28,23.28c0,0.4-0.33,0.73-0.73,0.73h-8.76c-0.4,0-0.73-0.33-0.73-0.73c0-0.4,0.33-0.73,0.73-0.73h8.76
			C29.95,22.54,30.28,22.87,30.28,23.28z M27.7,25.48h-5.06c-0.4,0-0.73,0.33-0.73,0.73s0.33,0.73,0.73,0.73h5.06
			c0.4,0,0.73-0.33,0.73-0.73S28.1,25.48,27.7,25.48z"/>
		<path class="st8" d="M9.67,9.15c-8.58,8.61-8.58,22.58,0,31.2s22.48,8.61,31.06,0s8.58-22.58,0-31.2S18.24,0.53,9.67,9.15z
			 M32.47,32.05c-4.02,4.03-10.53,4.03-14.54,0s-4.02-10.57,0-14.61s10.53-4.03,14.54,0C36.49,21.47,36.49,28.01,32.47,32.05z"/>
	</g>
	<path class="st9" d="M40.7,40.34c-4.56,4.58-10.64,6.73-16.61,6.43c5.24-0.27,10.41-2.41,14.41-6.43c8.58-8.61,8.58-22.58,0-31.2
		c-4-4.02-9.17-6.16-14.41-6.43c5.98-0.29,12.05,1.85,16.61,6.43C49.27,17.76,49.27,31.73,40.7,40.34z"/>
	<path class="st10" d="M40.73,9.15c8.58,8.61,8.58,22.58,0,31.2l-8.26-8.29c4.02-4.03,4.02-10.57,0-14.61s-10.53-4.03-14.54,0
		L9.67,9.15C18.24,0.53,32.15,0.53,40.73,9.15z"/>
	<path class="st11" d="M40.73,40.34l-1.16-1.16c7.48-8.67,7.12-21.8-1.08-30.03c-4-4.02-9.16-6.16-14.4-6.43
		c5.98-0.3,12.06,1.84,16.63,6.43C49.31,17.76,49.31,31.73,40.73,40.34z"/>
	<path class="st12" d="M26.79,14.54l1.87-14.11c0.04-0.27,0.29-0.46,0.56-0.42c10.68,1.63,19.13,10.06,20.83,20.76
		c0.04,0.27-0.14,0.53-0.41,0.56l-14.24,2.01c-0.29-2.16-1.27-4.24-2.92-5.9C30.87,15.83,28.87,14.86,26.79,14.54z"/>
	<g>
		<path class="st13" d="M50.04,20.76c0.04,0.27-0.14,0.53-0.41,0.56l-14.24,2.01c-0.08-0.58-0.21-1.15-0.38-1.71l14.81-2.09
			C49.9,19.95,49.97,20.35,50.04,20.76z"/>
		<path class="st13" d="M41.13,12.18h-4.87c-0.4,0-0.73-0.33-0.73-0.73c0-0.4,0.33-0.73,0.73-0.73h4.87c0.4,0,0.73,0.33,0.73,0.73
			C41.86,11.85,41.53,12.18,41.13,12.18z M41.13,13.65h-2.92c-0.4,0-0.73,0.33-0.73,0.73s0.33,0.73,0.73,0.73h2.92
			c0.4,0,0.73-0.33,0.73-0.73C41.86,13.98,41.53,13.65,41.13,13.65z"/>
	</g>
	<path class="st14" d="M25.2,35.07v14.2c0,0.27-0.22,0.49-0.5,0.49c-6.21-0.12-12.38-2.57-17.12-7.32
		c-4.74-4.76-7.17-10.96-7.29-17.19c-0.01-0.27,0.21-0.5,0.49-0.5h14.14c0,2.64,1,5.29,3.01,7.3C19.93,34.06,22.56,35.07,25.2,35.07
		z"/>
	<path class="st15" d="M14.6,34.91c0,0.4-0.33,0.73-0.73,0.73H9.01c-0.4,0-0.73-0.33-0.73-0.73s0.33-0.73,0.73-0.73h4.87
		C14.28,34.18,14.6,34.5,14.6,34.91z M11.93,37.11H9.01c-0.4,0-0.73,0.33-0.73,0.73c0,0.4,0.33,0.73,0.73,0.73h2.92
		c0.4,0,0.73-0.33,0.73-0.73C12.66,37.44,12.33,37.11,11.93,37.11z"/>
	<path class="st16" d="M23.25,34.89c0.64,0.12,1.29,0.19,1.95,0.19v14.2c0,0.27-0.22,0.49-0.5,0.49c-0.48-0.01-0.97-0.03-1.45-0.07
		V34.89z"/>
</g>
</svg>
